<?xml version="1.0" encoding="utf-8"?>
<!-- Generator: Adobe Illustrator 23.1.1, SVG Export Plug-In . SVG Version: 6.00 Build 0)  -->
<svg version="1.1" id="Layer_1" xmlns="http://www.w3.org/2000/svg" xmlns:xlink="http://www.w3.org/1999/xlink" x="0px" y="0px"
	 viewBox="0 0 1377.6 563.4" style="enable-background:new 0 0 1377.6 563.4;" xml:space="preserve">
<style type="text/css">
	.st0{fill:none;stroke:#010101;stroke-width:1.41;stroke-miterlimit:10;}
	.st1{fill:#005BAA;}
	.st2{fill:none;stroke:#010101;stroke-width:4.71;stroke-miterlimit:10;}
	.st3{clip-path:url(#SVGID_2_);}
	.st4{fill:#231F20;}
	.st5{fill:none;}
	.st6{fill:none;stroke:#231F20;stroke-width:5.23;stroke-miterlimit:10;}
	.st7{fill:#0071BB;stroke:#010101;stroke-width:2.09;stroke-miterlimit:10;}
</style>
<title>LogoSeatech</title>
<path class="st0" d="M-55,179.3"/>
<path class="st1" d="M523.7,281.3c-30,30.5-69,69.9-98.9,100.2c0-36.6-0.6-82.9,0.3-120.1c0.3-13-5.3-20.1-15.6-26.6v203.4
	l154.7-155.4C470.8,189.1,376.2,94.4,282,0C187.6,94.5,93,189.2,0,282.4l203.9,204.5V236.6c-31.7,18.1-62,35.2-92,52.9
	c-2.3,1.4-3.6,6.3-3.7,9.6c-0.4,14.6-0.2,38.3-0.2,52.6c-20.7-20.6-49.8-49.5-69.2-68.8c77.8-78.1,165-165.6,243.1-243.9
	C360.1,117.3,447.3,204.7,523.7,281.3z M329.3,519.4c13-8.1,16.4-18.3,16.4-32.4c-0.7-99.7-0.7-199.4,0-299.1
	c0.1-13.6-5.5-20.6-16.4-27.3V519.4z M358.9,488.9l3.6,1.5c2.9-6.6,8.2-13.3,8.3-19.9c0.5-87.5,0-175.1,0.4-262.6
	c0-10-4.4-14.8-12.3-19.8V488.9z M384.6,212v252.3c9.5-5.6,12.5-12.7,12.4-23c-0.5-68.9-0.5-137.8,0-206.7
	C397.1,224.4,394.8,216.9,384.6,212z"/>
<path class="st1" d="M523.7,281.3c-76.4-76.6-163.7-164-241.9-242.3c-78,78.3-165.2,165.8-243.1,243.9
	c19.4,19.2,48.5,48.2,69.2,68.8c0-14.2-0.2-37.9,0.2-52.6c0.1-3.3,1.3-8.2,3.7-9.6c30-17.6,60.4-34.8,92-52.9v250.3L0,282.4
	C93,189.2,187.6,94.5,282,0c94.2,94.4,188.8,189.1,282.3,282.8L409.6,438.2V234.8c10.3,6.5,15.9,13.6,15.6,26.6
	c-0.9,37.2-0.3,83.5-0.3,120.1C454.8,351.1,493.7,311.8,523.7,281.3z"/>
<path class="st1" d="M329.3,519.4V160.6c10.9,6.7,16.5,13.8,16.4,27.3c-0.7,99.7-0.7,199.4,0,299.1
	C345.7,501.1,342.3,511.3,329.3,519.4z"/>
<path class="st1" d="M358.9,488.9V188c7.9,5,12.3,9.8,12.3,19.8c-0.4,87.5,0.1,175.1-0.4,262.6c0,6.7-5.4,13.3-8.3,19.9L358.9,488.9
	z"/>
<path class="st1" d="M384.6,212c10.2,4.9,12.5,12.5,12.5,22.6c-0.4,68.9-0.4,137.8,0,206.7c0.1,10.4-3,17.4-12.4,23L384.6,212z"/>
<polygon class="st1" points="218.3,207.4 218.3,237.9 315,174.1 315,146 "/>
<polygon class="st1" points="218.3,269.3 218.3,299.8 315,236 315,207.9 "/>
<polygon class="st1" points="218.3,331.2 218.3,361.7 315,297.9 315,269.8 "/>
<polygon class="st1" points="218.3,393.1 218.3,423.6 315,359.8 315,331.7 "/>
<path class="st2" d="M117.1,335.6"/>
<path class="st2" d="M10.1,301.2"/>
<polygon class="st1" points="218.3,455 218.3,485.5 315,421.7 315,393.6 "/>
<path class="st1" d="M182.1,544.1"/>
<g>
	<defs>
		<polygon id="SVGID_1_" points="203.9,486.9 282.2,563.4 409.6,438.2 266.6,329.8 		"/>
	</defs>
	<clipPath id="SVGID_2_">
		<use xlink:href="#SVGID_1_"  style="overflow:visible;"/>
	</clipPath>
	<g class="st3">
		<polygon class="st1" points="218.3,517 218.3,547.4 315,483.6 315,455.5 		"/>
		<polyline class="st1" points="315,545.5 315,517.4 218.3,578.9 218.3,609.3 		"/>
	</g>
</g>
<path class="st4" d="M701,290.3c-11.7,0-22-2.8-30.6-8.4l-5.1-3.3l10.1-17.2l9,4c5,2.4,10.5,3.7,16,3.7c5.4,0,9.9-1.2,13.2-3.5
	c4.9-3.4,7.2-7.4,7.2-12.5c0-3.6-1.3-5.3-2.4-6.3c-0.6-0.5-2.5-2-7.5-5.1c-0.7-0.4-1.7-0.9-2.8-1.5l-10.2-4.8
	c-8.7-4.2-14.6-7.7-17.9-10.7c-7-6.4-10.5-14.6-10.5-24.4c0-13.4,6.3-24.2,18.2-31.1c7-3.9,14.8-5.9,22.8-5.8c6.5,0,13,1.1,19.2,3.2
	c2,0.7,4,1.5,6,2.4l2.2,1.3l7.2,3.2l-10,19.2l-7.8-3.8c-5.1-2.6-10.6-4-16.3-4.1c-4-0.1-7.9,0.8-11.4,2.7c-5.1,3-7.5,6.6-7.5,11.9
	c0,3.7,1.6,7.3,4.3,9.8c1,0.9,3.9,3.1,12.1,6.9l10.7,4.7c1.2,0.5,3.9,1.8,10.8,6.4c8.8,5.7,14.1,15.6,13.8,26.1
	c0,11.8-5.4,21.5-16,29.1C720.7,287.6,711.6,290.3,701,290.3z"/>
<polygon class="st4" points="770.6,288.1 770.6,165 841,165 841,186.5 793.3,186.5 793.3,213.3 836.5,213.3 836.5,234.8 
	793.3,234.8 793.3,266.6 841,266.6 841,288.1 "/>
<polygon class="st4" points="1004,288.1 1004,186.5 971.5,186.5 971.5,165 1059.3,165 1059.3,186.5 1026.7,186.5 1026.7,288.1 "/>
<polyline class="st4" points="928.4,227 929.9,231 929.9,231 "/>
<line class="st5" x1="918.1" y1="201" x2="906.9" y2="229.1"/>
<polyline class="st4" points="929.9,231 929.9,231 937.9,252.3 938,252.3 953.2,288.1 977.9,288.1 927.4,165 909,165 857.9,288.1 
	882.6,288.1 898,252.3 906.8,229.1 906.9,229.1 918.1,201 "/>
<path class="st4" d="M898,252.3"/>
<line class="st5" x1="938.1" y1="252.7" x2="937.9" y2="252.3"/>
<line class="st5" x1="906.9" y1="229.1" x2="906.1" y2="231"/>
<line class="st5" x1="929.9" y1="231" x2="928.4" y2="227"/>
<line class="st5" x1="937.9" y1="252.3" x2="929.9" y2="231"/>
<polyline class="st4" points="906.1,231 906.9,229.1 906.8,229.1 898,252.3 "/>
<rect x="1106.2" y="165" class="st4" width="42.6" height="21.5"/>
<polygon class="st4" points="1101.1,234.8 1101.1,213.3 1101.1,186.5 1101.1,165 1078.4,165 1078.4,288.1 1101.1,288.1 
	1101.1,266.6 "/>
<rect x="1106.2" y="266.6" class="st4" width="42.6" height="21.5"/>
<rect x="1106.2" y="213.3" class="st4" width="38.2" height="21.5"/>
<rect x="1283.5" y="165" class="st4" width="22.5" height="123.1"/>
<polygon class="st4" points="1354.9,165 1354.9,213 1311,213 1311,234.5 1354.9,234.5 1354.9,288.1 1377.6,288.1 1377.6,165 "/>
<path class="st4" d="M1254.6,260.2c-8.8,5.2-18.9,8.1-29.1,8.4c-11.1,0-20.2-3.8-27.8-11.6c-7.8-8-11.7-17.7-11.7-29.5
	c0-3.5,0.4-7,1.1-10.5c2.2-10.1,6.9-17.9,14.4-23.9s16.2-9,26.4-9c9.1,0.1,18,2.4,26.1,6.6l6,3.1l0.4-1v-22.6l-0.8-0.3
	c-10.3-4.6-21.4-7-32.7-7.1c-15.3,0-28.8,4.6-40.2,13.6s-18.8,21.3-22,36.3c-1,4.9-1.5,9.8-1.4,14.8c0,17.6,6.1,32.6,18.2,44.7
	c11.6,11.6,26,17.6,42.7,17.6h1.9c10.6-0.3,21.1-2.7,30.7-7.1c1-0.5,2.2-1.1,3.6-1.8v-24L1254.6,260.2z"/>
<path class="st4" d="M874.6,336.1l-2,4.7c-5.4-2.8-11.4-4.4-17.5-4.5c-6.7-0.1-13.2,2.1-18.4,6.2c-5.2,4.2-8.8,10.1-10,16.6
	c-0.5,2.3-0.7,4.7-0.7,7.1c-0.2,7.7,2.8,15.1,8.1,20.6c5.2,5.5,12.5,8.4,20.1,8.2c6.7-0.2,13.2-2.1,19-5.6l2.2,4.4
	c-1.4,0.8-2.9,1.6-4.4,2.3c-5.4,2.5-11.2,3.9-17.1,4c-9,0.4-17.8-3-24.1-9.5c-6.5-6.4-10.1-15.2-9.9-24.3c0-2.7,0.3-5.5,0.8-8.1
	c1.5-7.8,5.7-14.8,11.9-19.7c6.2-4.9,14-7.6,21.9-7.4c6.3,0.1,12.5,1.4,18.3,4C873.1,335.4,873.8,335.7,874.6,336.1z"/>
<path class="st4" d="M1069.5,399.2v-66.4l5.9-1.6l40.3,58l-0.1-56.7h5.8v66.4l-6,1.6l-39.6-58.8c-0.4-0.6-0.7-1.2-0.9-1.8l0.3,3.2
	l0.1,56.2L1069.5,399.2z"/>
<path class="st4" d="M1192.6,396.1l2.5-4.3l0.8,0.4l1.4,0.7c3.5,1.7,7.4,2.6,11.3,2.6c3.6,0.1,7.2-0.8,10.2-2.8c4-2.8,6-6.3,6-10.7
	c0.1-2.5-0.8-4.9-2.6-6.6c-1.6-1.4-3.4-2.6-5.3-3.6l-1.9-1l-6.2-3c-4.9-2.3-8.2-4.3-9.9-5.8c-3.4-3-5.2-7.3-5.1-11.9
	c0-6.8,3-11.9,9.1-15.5c3.6-2,7.7-3.1,11.9-3c3.5,0,7,0.6,10.4,1.8c1,0.4,2.1,0.8,3.2,1.3l0.9,0.6l1,0.5l-2.4,4.6l-1.3-0.7
	c-3.6-1.8-7.6-2.8-11.6-2.9c-3.1-0.1-6.1,0.7-8.8,2.1c-4.3,2.5-6.5,6-6.5,10.5c0,3.3,1.4,6.5,3.8,8.7c1.4,1.3,4.2,3,8.4,4.9l6.5,2.9
	c2.1,1,4.1,2.2,5.9,3.5c4.3,2.7,6.8,7.5,6.7,12.6c0,5.8-2.7,10.6-8.1,14.5c-3.7,2.7-8.4,4-14,4
	C1203.2,400.6,1197.5,399.1,1192.6,396.1z"/>
<path class="st6" d="M937.1,365.9c0-8.9,2.5-16.5,7.7-22.7c4.9-6.2,12-10.2,19.9-11.3c2.3-0.4,4.6-0.5,6.8-0.5
	c11.3,0,20.3,4.1,26.9,12.2c6.6,8.1,8.9,18.1,6.7,29.8c-1.3,7.7-5.3,14.8-11.4,19.7c-6,4.9-13.4,7.4-22,7.4c-2.3,0-4.7-0.2-7-0.5
	c-7.8-1.1-14.9-5.2-19.9-11.4C939.7,382.3,937.1,374.8,937.1,365.9z"/>
<line class="st6" x1="783.9" y1="307.2" x2="1268.6" y2="307.2"/>
<path class="st7" d="M1029,385.9"/>
<path class="st1" d="M953.6,348.5c0.3-0.2,0.6-0.4,1-0.6c0.5-0.3,1-0.7,1.4-1.1c2.4-3.1,6.2-4.8,10.1-4.7c2.1,0,4.1,0.4,6.1,1.1
	c1.6,0.6,3.4,1,5,1.7c4.8,2.2,7.4,6.3,9.4,10.9c0.8,2,1.4,4,1.9,6c0.3,1.2,0.6,2.4,0.7,3.6c0.1,0.9,0.4,1.8,0.9,2.5
	c1.9,2.5,3.5,5.3,4.7,8.3c0.6,1.7,0.7,4.1-1,5.5c-1,0.8-2.1,1.5-3.2,2c-2.4,1.1-4.8,2-7.3,2.9c-1.7,0.6-3.4,1.1-5.1,1.4
	c-1.8,0.5-3.8,0.5-5.6,0c-2.6-1-5-2.3-7.2-4.1c-1.9-1.4-3.7-2.9-5.7-4.2c-3-1.9-6.2-3.6-8.8-6c-2-1.8-3.9-3.7-4.5-6.5
	c-0.5-2.8-0.2-5.2,2.2-7.1c0.3-0.2,0.5-0.6,0.6-1c0.4-2.6,1.2-5,2.4-7.3c0.6-1.2,1.3-2.1,2.9-1.8c1.5,0.3,3,0.6,4.5,1.1
	c3.3,1.2,5.5,3.7,7,6.6c1.5,2.8,2.1,6,1.9,9.1c-0.1,1.9-0.5,3.7-1.3,5.4c-0.2,0.5-0.4,1-0.7,1.7c0.2-0.1,0.4-0.1,0.6-0.2
	c0.2-0.1,0.3-0.2,0.5-0.4c1.3-1.6,2.1-3.6,2.3-5.7c0.2-2.1,0.1-4.2-0.3-6.3c-0.6-2.6-1.8-5.1-3.5-7.2c-2.7-3.2-6.5-5.1-10.7-5.4
	c-0.3,0-0.6-0.1-0.9-0.1L953.6,348.5z M968.2,357.7c0.6,1.4,1.1,3,1.3,4.5c0.2,1.9,0.2,3.8,0,5.6c-0.3,1.6-0.7,3.1-1.2,4.6
	c-0.3,0.9-0.2,1.1,0.7,1.2h0.5c1.7,0.2,1.5,0.2,1.3-1.4c-0.1-1.5-0.1-2.9,0-4.4c0.1-1.9,0-3.9-0.2-5.8c-0.2-2.7-1.5-5.1-3.5-6.9
	l-0.2,0.2C967.5,356,967.9,356.9,968.2,357.7z"/>
</svg>
