<svg id="Layer_1" data-name="Layer 1" xmlns="http://www.w3.org/2000/svg" xmlns:xlink="http://www.w3.org/1999/xlink" viewBox="0 0 712.31 841.26"><defs><style>.cls-1,.cls-2,.cls-4,.cls-7{fill:none;}.cls-2,.cls-4,.cls-8{stroke:#010101;}.cls-2,.cls-4,.cls-7,.cls-8{stroke-miterlimit:10;}.cls-2{stroke-width:1.41px;}.cls-3{fill:#005baa;}.cls-4{stroke-width:4.71px;}.cls-5{clip-path:url(#clip-path);}.cls-6{fill:#231f20;}.cls-7{stroke:#231f20;stroke-width:5.23px;}.cls-8{fill:#0071bb;stroke-width:2.09px;}</style><clipPath id="clip-path"><polygon class="cls-1" points="277.88 486.89 356.16 563.39 483.61 438.17 340.62 329.81 277.88 486.89"/></clipPath></defs><title>LogoSeatech</title><path class="cls-2" d="M-55,179.28"/><path class="cls-3" d="M597.73,281.27c-30.05,30.5-69,69.86-98.86,100.21,0-36.6-.61-82.89.33-120.12.33-13-5.27-20.07-15.59-26.58V438.17L638.3,282.77C544.8,189.11,450.21,94.38,356,0,261.63,94.49,167,189.23,74,282.38L277.88,486.89V236.61c-31.66,18.07-62,35.22-92,52.87-2.34,1.38-3.57,6.28-3.66,9.59-.39,14.64-.17,38.32-.17,52.56-20.71-20.56-49.81-49.5-69.21-68.75,77.85-78.13,165-165.61,243.07-243.94C434.07,117.3,521.33,204.71,597.73,281.27ZM403.26,519.42c13-8.13,16.44-18.34,16.35-32.36q-1-149.55.05-299.09c.09-13.56-5.5-20.65-16.4-27.33Zm29.63-30.55,3.64,1.48c2.89-6.64,8.25-13.27,8.29-19.93.47-87.53,0-175.07.36-262.61,0-10-4.36-14.83-12.29-19.79ZM458.56,212V464.33c9.47-5.62,12.5-12.68,12.42-23.05q-.71-103.33,0-206.68C471.07,224.42,468.76,216.89,458.56,212Z"/><path class="cls-3" d="M597.73,281.27c-76.4-76.56-163.66-164-241.87-242.33-78,78.33-165.22,165.81-243.07,243.94,19.4,19.25,48.5,48.19,69.21,68.75,0-14.24-.22-37.92.17-52.56.09-3.31,1.32-8.21,3.66-9.59,30-17.65,60.39-34.8,92-52.87V486.89L74,282.38C167,189.23,261.63,94.49,356,0,450.21,94.38,544.8,189.11,638.3,282.77L483.61,438.17V234.78c10.32,6.51,15.92,13.61,15.59,26.58-.94,37.23-.33,83.52-.33,120.12C528.78,351.13,567.68,311.77,597.73,281.27Z"/><path class="cls-3" d="M403.26,519.42V160.64c10.9,6.68,16.49,13.77,16.4,27.33q-1.05,149.54-.05,299.09C419.7,501.08,416.3,511.29,403.26,519.42Z"/><path class="cls-3" d="M432.89,488.87V188c7.93,5,12.33,9.82,12.29,19.79-.35,87.54.11,175.08-.36,262.61,0,6.66-5.4,13.29-8.29,19.93Z"/><path class="cls-3" d="M458.56,212c10.2,4.94,12.51,12.47,12.45,22.65q-.63,103.34,0,206.68c.08,10.37-3,17.43-12.42,23.05Z"/><polygon class="cls-3" points="292.29 207.42 292.29 237.9 388.96 174.08 388.96 145.99 292.29 207.42"/><polygon class="cls-3" points="292.29 269.33 292.29 299.81 388.96 235.99 388.96 207.9 292.29 269.33"/><polygon class="cls-3" points="292.29 331.24 292.29 361.71 388.96 297.9 388.96 269.8 292.29 331.24"/><polygon class="cls-3" points="292.29 393.14 292.29 423.62 388.96 359.81 388.96 331.71 292.29 393.14"/><path class="cls-4" d="M191.14,335.64"/><path class="cls-4" d="M84.1,301.16"/><polygon class="cls-3" points="292.29 455.05 292.29 485.53 388.96 421.72 388.96 393.62 292.29 455.05"/><path class="cls-3" d="M256.07,544.06"/><g class="cls-5"><polygon class="cls-3" points="292.29 516.96 292.29 547.44 388.96 483.63 388.96 455.53 292.29 516.96"/><polyline class="cls-3" points="388.96 545.53 388.96 517.44 292.29 578.87 292.29 609.35"/></g><path class="cls-6" d="M35.72,728.39c-11.74,0-22-2.83-30.6-8.39L0,716.68l10.12-17.23,9,4a37.5,37.5,0,0,0,16,3.7c5.4,0,9.86-1.17,13.24-3.48,4.89-3.38,7.18-7.36,7.18-12.5,0-3.61-1.34-5.32-2.35-6.29-.58-.55-2.47-2-7.55-5.08-.68-.37-1.68-.89-2.81-1.46l-10.16-4.85c-8.71-4.19-14.56-7.67-17.9-10.66-7-6.37-10.55-14.56-10.55-24.37,0-13.43,6.29-24.18,18.18-31.1a45.35,45.35,0,0,1,22.83-5.77,60.82,60.82,0,0,1,19.17,3.23c2,.72,4,1.5,6,2.38l2.2,1.27,7.18,3.22-10,19.21L62,627.06A36.94,36.94,0,0,0,45.68,623a22.83,22.83,0,0,0-11.44,2.7c-5.14,3-7.46,6.63-7.46,11.91a13.07,13.07,0,0,0,4.35,9.83c1,.94,3.93,3.14,12.13,6.87L53.93,659c1.19.45,3.94,1.75,10.79,6.36a30.4,30.4,0,0,1,13.84,26.13c0,11.75-5.39,21.54-16,29.1C55.37,725.77,46.33,728.39,35.72,728.39Z"/><polygon class="cls-6" points="105.28 726.24 105.28 603.16 175.65 603.16 175.65 624.66 128.01 624.66 128.01 651.42 171.21 651.42 171.21 672.93 128.01 672.93 128.01 704.74 175.65 704.74 175.65 726.24 105.28 726.24"/><polygon class="cls-6" points="338.67 726.24 338.67 624.66 306.19 624.66 306.19 603.16 394.03 603.16 394.03 624.66 361.4 624.66 361.4 726.24 338.67 726.24"/><polyline class="cls-6" points="263.07 665.14 264.56 669.1 264.63 669.1"/><line class="cls-6" x1="252.82" y1="639.13" x2="241.58" y2="667.2"/><polyline class="cls-6" points="264.63 669.1 264.56 669.1 272.58 690.39 272.67 690.39 287.87 726.24 312.56 726.24 262.13 603.16 243.72 603.16 192.58 726.24 217.28 726.24 232.66 690.39 241.52 667.21 241.58 667.2 252.82 639.13"/><path class="cls-6" d="M232.66,690.39"/><line class="cls-6" x1="272.76" y1="690.87" x2="272.58" y2="690.39"/><line class="cls-6" x1="241.58" y1="667.2" x2="240.79" y2="669.18"/><line class="cls-6" x1="264.56" y1="669.1" x2="263.07" y2="665.14"/><line class="cls-6" x1="272.58" y1="690.39" x2="264.56" y2="669.1"/><polyline class="cls-6" points="240.79 669.18 241.58 667.2 241.52 667.21 232.66 690.39"/><rect class="cls-6" x="440.84" y="603.16" width="42.61" height="21.5"/><polygon class="cls-6" points="435.81 672.93 435.81 651.42 435.81 624.66 435.81 603.16 413.08 603.16 413.08 726.24 435.81 726.24 435.81 704.74 435.81 672.93"/><rect class="cls-6" x="440.84" y="704.74" width="42.61" height="21.5"/><rect class="cls-6" x="440.84" y="651.43" width="38.17" height="21.5"/><rect class="cls-6" x="618.19" y="603.16" width="22.45" height="123.08"/><polygon class="cls-6" points="689.58 603.16 689.58 651.12 645.67 651.12 645.67 672.62 689.58 672.62 689.58 726.24 712.31 726.24 712.31 603.16 689.58 603.16"/><path class="cls-6" d="M589.3,698.38a60.17,60.17,0,0,1-29.12,8.36c-11.11,0-20.21-3.78-27.83-11.57-7.84-8-11.65-17.69-11.65-29.55a52.06,52.06,0,0,1,1.07-10.45c2.17-10.06,6.86-17.87,14.37-23.86s16.18-8.95,26.43-8.95A58,58,0,0,1,588.66,629l6.05,3.06.42-1V608.48l-.76-.35A82,82,0,0,0,561.66,601c-15.31,0-28.84,4.59-40.21,13.63s-18.81,21.27-22,36.31A73.7,73.7,0,0,0,498,665.7c0,17.59,6.12,32.63,18.19,44.68C527.83,722,542.2,728,558.87,728l1.9,0a78.87,78.87,0,0,0,30.74-7.07c1-.46,2.25-1.06,3.62-1.79v-24Z"/><path class="cls-6" d="M209.25,774.25l-2,4.73a38.62,38.62,0,0,0-17.51-4.45,28.66,28.66,0,0,0-18.4,6.25,28.11,28.11,0,0,0-10.05,16.63,35.93,35.93,0,0,0-.74,7.14,28.29,28.29,0,0,0,8.15,20.57,26.4,26.4,0,0,0,20.11,8.15,39.54,39.54,0,0,0,19-5.56l2.23,4.41a46,46,0,0,1-4.35,2.3,43.44,43.44,0,0,1-17.15,4,31.6,31.6,0,0,1-24.14-9.49,33,33,0,0,1-9.86-24.29,41,41,0,0,1,.83-8.14,33,33,0,0,1,11.91-19.7,34.14,34.14,0,0,1,21.91-7.41,45.49,45.49,0,0,1,18.26,4C207.83,773.51,208.44,773.82,209.25,774.25Z"/><path class="cls-6" d="M404.21,837.35V770.92l5.93-1.58,40.31,58-.1-56.7h5.84V837l-6,1.58L410.6,779.81a8.33,8.33,0,0,1-.92-1.85l.27,3.15.09,56.24Z"/><path class="cls-6" d="M527.27,834.2l2.5-4.26.83.37,1.4.65a26.44,26.44,0,0,0,11.3,2.6,17.63,17.63,0,0,0,10.19-2.79q6-4.15,6-10.74a8.69,8.69,0,0,0-2.6-6.58,34.92,34.92,0,0,0-5.28-3.62l-1.94-1-6.21-3q-7.32-3.52-9.91-5.84a15.3,15.3,0,0,1-5.1-11.86q0-10.18,9.07-15.47a23.51,23.51,0,0,1,11.87-3,32.58,32.58,0,0,1,10.38,1.77c1.05.36,2.12.8,3.24,1.29l.92.56,1,.46-2.41,4.63-1.29-.65a26.11,26.11,0,0,0-11.58-2.87,17.63,17.63,0,0,0-8.81,2.14q-6.48,3.69-6.48,10.55a11.81,11.81,0,0,0,3.79,8.72q2.14,2,8.44,4.91l6.48,2.87a37.06,37.06,0,0,1,5.93,3.52,14.42,14.42,0,0,1,6.68,12.6q0,8.71-8.07,14.45-5.56,4-14,4A29.52,29.52,0,0,1,527.27,834.2Z"/><path class="cls-7" d="M271.82,804q0-13.34,7.65-22.69A31,31,0,0,1,299.34,770a44,44,0,0,1,6.85-.55q17,0,26.92,12.22t6.72,29.84a32.21,32.21,0,0,1-11.4,19.73q-9.07,7.42-22.05,7.42a46.39,46.39,0,0,1-7-.55,31,31,0,0,1-19.87-11.36Q271.82,817.34,271.82,804Z"/><line class="cls-7" x1="118.62" y1="745.31" x2="603.33" y2="745.31"/><path class="cls-8" d="M363.67,824"/><path class="cls-3" d="M288.27,786.63c.32-.21.64-.4,1-.62a8.27,8.27,0,0,0,1.39-1.07,12.44,12.44,0,0,1,10.15-4.72,17.68,17.68,0,0,1,6.07,1.07c1.64.63,3.38,1,5,1.74,4.78,2.18,7.44,6.28,9.37,10.9a55.29,55.29,0,0,1,1.94,6,18.6,18.6,0,0,1,.66,3.62,4.75,4.75,0,0,0,.92,2.48,35.81,35.81,0,0,1,4.72,8.29c.64,1.74.7,4.12-1.05,5.54a15,15,0,0,1-3.24,2c-2.39,1.07-4.83,2-7.3,2.94a37.25,37.25,0,0,1-5.09,1.41,10.72,10.72,0,0,1-5.62,0,27,27,0,0,1-7.23-4.06c-1.89-1.41-3.71-2.93-5.69-4.19-3-1.92-6.15-3.61-8.8-6-2-1.81-3.94-3.7-4.47-6.46s-.17-5.2,2.17-7.07a1.71,1.71,0,0,0,.63-1,23,23,0,0,1,2.37-7.31c.58-1.25,1.3-2.14,2.86-1.79a40.51,40.51,0,0,1,4.51,1.07c3.28,1.16,5.46,3.65,7.05,6.61a17.08,17.08,0,0,1,1.88,9.14,13,13,0,0,1-1.33,5.36c-.25.48-.41,1-.69,1.73a4.07,4.07,0,0,0,.6-.2,2.11,2.11,0,0,0,.49-.39,10,10,0,0,0,2.29-5.65,21,21,0,0,0-.35-6.27,17.57,17.57,0,0,0-3.45-7.23,15.09,15.09,0,0,0-10.7-5.37c-.3,0-.61-.09-.91-.14Zm14.66,9.23a20.44,20.44,0,0,1,1.34,4.51,24.18,24.18,0,0,1,0,5.64,28.72,28.72,0,0,1-1.23,4.58c-.27.87-.17,1.08.73,1.15l.45,0c1.69.16,1.55.18,1.33-1.44a36,36,0,0,1,0-4.41,43.19,43.19,0,0,0-.17-5.81,10.1,10.1,0,0,0-3.49-6.87l-.23.18A18.71,18.71,0,0,1,302.93,795.86Z"/></svg>